<svg xmlns="http://www.w3.org/2000/svg" viewBox="0 0 3619 4031">
<path fill="#020101" stroke="none"
	d="
M236.535004,3403.372559
	C174.844864,3310.282227 131.960968,3209.745361 105.173492,3102.252930
	C90.131508,3041.892822 81.366295,2980.760742 83.762215,2918.303467
	C84.960907,2887.055664 92.323883,2857.113770 100.974609,2827.314697
	C109.038559,2799.536621 117.178337,2771.760010 124.261703,2743.724121
	C131.272949,2715.973633 131.720612,2687.701172 127.646935,2659.370361
	C122.451035,2623.235107 122.634071,2586.888916 124.727242,2550.615723
	C128.886322,2478.542236 141.343414,2407.775146 162.180695,2338.674561
	C171.772110,2306.867432 181.750458,2274.904785 195.114197,2244.582031
	C208.892685,2213.318604 226.055588,2183.409180 243.375427,2153.867676
	C321.508087,2020.599731 427.758148,1915.228027 560.218994,1835.892578
	C582.176392,1822.741333 602.574951,1807.014038 624.010620,1792.960449
	C690.763306,1749.195435 760.962097,1712.286011 836.925110,1686.993286
	C889.525146,1669.479370 943.381897,1657.825684 998.481384,1651.602661
	C1063.295898,1644.282593 1128.118164,1644.517334 1193.080566,1649.401733
	C1231.265503,1652.272705 1269.571655,1653.495117 1307.779541,1656.101929
	C1428.895142,1664.365479 1545.197510,1690.825439 1653.502808,1747.718140
	C1739.073364,1792.668335 1811.520020,1853.578979 1873.418457,1927.365967
	C1886.025024,1942.393921 1897.735718,1958.217407 1909.199097,1974.149170
	C1923.829712,1994.482666 1938.798340,2014.458862 1957.865234,2030.925293
	C1968.778564,2040.350098 1980.411987,2048.655518 1995.084106,2051.253906
	C1998.323853,2051.827637 2001.617065,2052.099609 2005.438599,2052.580322
	C2007.133789,2049.111328 2008.773315,2045.920532 2010.271973,2042.664917
	C2033.368286,1992.494507 2055.875244,1942.041016 2079.797852,1892.268188
	C2089.996338,1871.049683 2102.469971,1850.822876 2115.074219,1830.881714
	C2157.302490,1764.073120 2205.170410,1701.270386 2252.885742,1638.361938
	C2274.826416,1609.434814 2296.073242,1579.982056 2317.785889,1550.880493
	C2324.062988,1542.466919 2328.428223,1533.324341 2330.953125,1523.156128
	C2340.335938,1485.372314 2349.851807,1447.634399 2354.593262,1408.877319
	C2358.694092,1375.359497 2358.575439,1341.712769 2358.224609,1308.058716
	C2358.061279,1292.406616 2356.811523,1276.761353 2356.822754,1261.113403
	C2356.830811,1250.147339 2358.116455,1239.180542 2358.872803,1228.216919
	C2359.790039,1214.921997 2360.773438,1201.631470 2361.671631,1188.335327
	C2361.824463,1186.071533 2361.693359,1183.788330 2361.693359,1180.737915
	C2355.054199,1179.810669 2348.884277,1178.293945 2342.690918,1178.190186
	C2301.624756,1177.501831 2262.331787,1167.846436 2223.448486,1155.617798
	C2202.844238,1149.137939 2182.031982,1143.298340 2161.216064,1137.521118
	C2141.689697,1132.101929 2124.172852,1122.788696 2107.927002,1110.943848
	C2103.578857,1107.773438 2099.463135,1107.048706 2094.078125,1107.965820
	C2030.010376,1118.876587 1971.770020,1105.428955 1920.001709,1065.599609
	C1917.626953,1063.772461 1915.256592,1061.939575 1912.393311,1059.730835
	C1911.255981,1060.737793 1909.874512,1061.595215 1908.975586,1062.809814
	C1876.632935,1106.506226 1832.414673,1129.719604 1779.512817,1138.008911
	C1768.003052,1139.812378 1756.445190,1141.377075 1745.012451,1143.585449
	C1730.762329,1146.337891 1716.947632,1144.561768 1703.981689,1138.890747
	C1689.397949,1132.512329 1675.111938,1125.296875 1661.252319,1117.462280
	C1647.357666,1109.607910 1634.289429,1100.306641 1620.597046,1092.075073
	C1608.343018,1084.708252 1595.657104,1078.063477 1583.311523,1070.843750
	C1577.303589,1067.330200 1571.226196,1063.726196 1565.900146,1059.297729
	C1553.868042,1049.293579 1548.392090,1036.079590 1549.057739,1020.449829
	C1550.815674,979.171387 1553.294678,937.952942 1559.345459,897.026794
	C1560.416138,889.784485 1561.111206,882.473511 1561.646362,875.169800
	C1561.986206,870.533691 1562.102661,865.812378 1561.633301,861.199097
	C1560.407593,849.151917 1558.030151,846.435425 1546.097168,844.727112
	C1530.090088,842.435608 1516.242554,835.615173 1504.020630,825.426514
	C1499.741211,821.859009 1495.769531,817.583252 1492.721924,812.933228
	C1475.283203,786.324280 1460.680054,758.388000 1455.046265,726.623291
	C1451.484253,706.540405 1452.771606,687.214844 1461.454346,668.112732
	C1485.371094,615.494995 1501.104004,560.173340 1514.076660,503.977173
	C1529.192383,438.496979 1544.355225,373.024200 1560.140991,307.703705
	C1566.788208,280.198151 1576.901733,253.903107 1589.188599,228.209946
	C1598.291748,209.173904 1605.997192,189.046661 1607.798706,167.421661
	C1608.295166,161.462753 1609.190552,155.491318 1610.475708,149.651672
	C1616.308960,123.143951 1633.755371,105.750252 1657.093018,94.565628
	C1671.366333,87.725212 1686.923950,83.176918 1702.323853,79.237831
	C1710.081665,77.253517 1718.988159,77.705360 1727.008667,79.125572
	C1795.173340,91.195702 1863.259399,103.710518 1931.357544,116.154953
	C2002.728638,129.197479 2074.078369,142.357040 2145.453369,155.377502
	C2212.899414,167.681229 2280.374268,179.825974 2347.821777,192.122772
	C2419.198242,205.135910 2490.554443,218.257614 2561.924072,231.308853
	C2599.573975,238.193909 2637.349609,244.461823 2674.837158,252.138535
	C2692.354736,255.725861 2709.393555,261.767822 2726.528320,267.088013
	C2794.795654,288.284454 2863.003906,309.672638 2931.258301,330.911011
	C2962.677979,340.687744 2994.510254,349.274506 3025.513184,360.219971
	C3062.727295,373.358093 3096.359131,392.910950 3121.052002,424.784729
	C3138.904541,447.828857 3152.276855,473.460785 3162.086426,500.967133
	C3173.314453,532.450500 3179.659424,565.093201 3185.734863,597.821045
	C3194.055420,642.642883 3202.422119,687.456116 3210.807617,732.265808
	C3221.826416,791.145508 3232.974854,850.001099 3243.898682,908.898315
	C3256.280029,975.653015 3268.537598,1042.430786 3280.733643,1109.219604
	C3293.289307,1177.977417 3305.750244,1246.752686 3318.171143,1315.535034
	C3331.242676,1387.919067 3344.986816,1460.193604 3356.960938,1532.759521
	C3364.748779,1579.953491 3380.486084,1624.875854 3392.655762,1670.811890
	C3427.582031,1802.642334 3462.903076,1934.367920 3497.888916,2066.182617
	C3507.360596,2101.868896 3516.602051,2137.627930 3525.113770,2173.551514
	C3528.395264,2187.402832 3530.011475,2201.747314 3531.250244,2215.965820
	C3535.154785,2260.781494 3539.163086,2305.658691 3537.468994,2350.686768
	C3536.543701,2375.286133 3534.027344,2399.869141 3531.217285,2424.343262
	C3527.381348,2457.748779 3522.835449,2491.079590 3518.139404,2524.378418
	C3509.956787,2582.404785 3499.128418,2639.959717 3486.993896,2697.288330
	C3465.607422,2798.327148 3435.443115,2896.933105 3405.378662,2995.598389
	C3377.553223,3086.915283 3350.437256,3178.448975 3323.243896,3269.957031
	C3318.224609,3286.847900 3313.183838,3303.872803 3310.170166,3321.187256
	C3305.266357,3349.358398 3302.162354,3377.839355 3298.029785,3406.150391
	C3295.773926,3421.602539 3293.551514,3437.100098 3290.276123,3452.354248
	C3284.490479,3479.297607 3269.919434,3501.217773 3249.885498,3519.828857
	C3234.658936,3533.973145 3217.846924,3545.985107 3199.871338,3556.179688
	C3160.140137,3578.712402 3122.320068,3604.205078 3084.813965,3630.127686
	C3061.686768,3646.111816 3035.812500,3655.289307 3009.668457,3664.092773
	C2959.350098,3681.036377 2907.628906,3691.739258 2854.978516,3698.306396
	C2773.062012,3708.523926 2690.874023,3709.616699 2608.511230,3706.575928
	C2544.860352,3704.225830 2481.595947,3697.622559 2418.345215,3690.580322
	C2380.941650,3686.415771 2343.505371,3681.441895 2305.738525,3684.179688
	C2292.183838,3685.162842 2278.737793,3687.774170 2265.280518,3689.885742
	C2262.040771,3690.394043 2258.695801,3691.403320 2255.834717,3692.974854
	C2227.817871,3708.366211 2197.030273,3715.906494 2166.538574,3723.937988
	C2091.599854,3743.676758 2016.309326,3762.092773 1941.482178,3782.236328
	C1896.555542,3794.330322 1852.003784,3807.961182 1807.738159,3822.304443
	C1786.311523,3829.247314 1766.107788,3839.874023 1745.046387,3848.050293
	C1665.851318,3878.794434 1584.367065,3902.100098 1501.861328,3921.989990
	C1445.541138,3935.566406 1388.763672,3946.917236 1331.451416,3955.357666
	C1303.455322,3959.480713 1275.337280,3963.231689 1247.139038,3965.347900
	C1231.013306,3966.558105 1214.527832,3964.958008 1198.358521,3963.202637
	C1162.275757,3959.286377 1126.203979,3955.078125 1090.279785,3949.927734
	C955.455566,3930.598145 824.924683,3896.312256 702.562439,3835.087158
	C645.437012,3806.503662 588.562500,3777.386230 537.315674,3738.491943
	C473.564331,3690.106689 416.612640,3634.706543 364.374603,3574.283447
	C317.890900,3520.516846 275.660645,3463.555176 236.535004,3403.372559
M1599.536865,546.508728
	C1599.119019,548.447815 1598.627808,550.374390 1598.293945,552.327820
	C1589.358276,604.611328 1577.564575,656.161621 1559.268066,706.077698
	C1558.181641,709.041504 1557.629395,712.784241 1558.414551,715.743774
	C1560.972046,725.382751 1564.304932,734.814270 1567.257935,744.350830
	C1568.559937,748.555237 1571.303711,750.932617 1575.489990,752.226196
	C1583.444336,754.684082 1591.282227,757.515320 1599.204224,760.081055
	C1629.385864,769.855713 1659.068481,780.720520 1685.501831,798.851562
	C1686.691284,799.667358 1688.329834,799.828430 1690.192871,800.435913
	C1690.889160,798.146362 1691.509888,796.631592 1691.806152,795.055786
	C1709.558838,700.595032 1739.325073,610.019592 1779.738281,522.879761
	C1789.969849,500.817932 1799.989014,478.656189 1810.396851,456.678192
	C1814.447754,448.123932 1813.947021,441.371552 1806.700317,434.393768
	C1799.014648,426.993225 1792.929688,418.045685 1790.224487,407.386841
	C1788.348633,399.995789 1788.094849,392.556244 1794.223999,386.898102
	C1800.692749,380.926605 1809.167603,379.655701 1816.722900,382.818726
	C1835.057861,390.494568 1851.443848,401.346558 1863.133911,417.958069
	C1869.168457,426.533447 1871.957275,435.855927 1867.403076,446.213409
	C1866.614258,448.007294 1866.386597,450.062378 1866.000366,452.016632
	C1858.193726,491.526672 1851.321777,531.248413 1842.411743,570.507690
	C1824.928345,647.542297 1802.088379,723.101746 1776.893311,797.946655
	C1769.986206,818.465271 1762.906006,838.928833 1755.609863,859.311890
	C1751.589722,870.543091 1753.139526,879.838257 1762.280396,888.151611
	C1770.569702,895.690674 1780.014282,901.069885 1790.020264,905.697998
	C1812.445312,916.070496 1836.427734,919.931824 1860.740601,921.901794
	C1870.579834,922.699036 1880.537720,922.033447 1890.685791,922.033447
	C1891.293091,919.658081 1891.740601,918.104614 1892.085815,916.528748
	C1906.425293,851.082825 1923.671753,786.440979 1945.194458,722.959839
	C1963.723022,668.309814 1984.836182,614.741455 2011.146240,563.316528
	C2013.857910,558.016357 2014.112061,552.759888 2013.122803,546.885925
	C2011.135864,535.089050 2009.015869,523.187439 2011.925415,511.177551
	C2014.910034,498.858917 2024.089966,493.942963 2035.221313,498.721771
	C2056.488037,507.851868 2069.224121,531.537354 2065.135254,554.388794
	C2064.724854,556.681519 2064.050049,558.933777 2063.745361,561.237549
	C2057.931396,605.197693 2048.980957,648.557678 2038.780273,691.675598
	C2018.286011,778.305176 1992.109375,863.257019 1963.182861,947.395386
	C1959.702637,957.518494 1959.568848,957.757935 1968.044067,963.998108
	C1995.795898,984.431274 2026.446777,998.743958 2060.317871,1005.293335
	C2068.218750,1006.821106 2076.800537,1005.338440 2085.010010,1004.591675
	C2091.294678,1004.019897 2094.367188,1000.144592 2095.801270,993.610474
	C2107.010498,942.544312 2118.160645,891.457275 2130.219971,840.587891
	C2142.816650,787.450867 2155.580078,734.338135 2173.511475,682.620850
	C2176.718018,673.372314 2176.856445,663.076050 2178.585938,653.294373
	C2180.083740,644.821472 2180.960205,636.099915 2183.681396,628.016846
	C2187.201416,617.561462 2195.264893,610.851135 2206.214111,608.806641
	C2221.034424,606.039124 2242.911621,612.893677 2248.101562,635.612915
	C2251.259521,649.437195 2247.490479,661.899658 2242.011719,674.297058
	C2239.749756,679.415039 2237.687012,684.757690 2236.562012,690.210327
	C2234.681396,699.326416 2233.619873,708.611816 2232.225098,717.827759
	C2220.960693,792.257263 2206.393799,866.075439 2190.941162,939.723022
	C2184.377686,971.005371 2177.353271,1002.191833 2170.377441,1033.385986
	C2169.215820,1038.580566 2169.812012,1042.397217 2175.017578,1044.975586
	C2183.365234,1049.110352 2191.384521,1053.941528 2199.855225,1057.789917
	C2260.709229,1085.436523 2323.624512,1100.702148 2391.061523,1090.266724
	C2422.637695,1085.380615 2452.723633,1076.505859 2481.018311,1061.535645
	C2487.132324,1058.300781 2490.584717,1053.948486 2491.870605,1047.183594
	C2498.356201,1013.064697 2509.099365,980.134033 2519.939941,947.223328
	C2522.957031,938.063477 2525.300537,928.661438 2527.516602,919.267456
	C2528.485840,915.159241 2529.287109,910.756226 2525.890137,906.925659
	C2519.274414,899.464844 2511.638428,893.416626 2502.465576,888.198120
	C2500.959229,892.172302 2499.772705,895.247742 2498.625732,898.337646
	C2492.367920,915.195801 2486.399170,932.168213 2479.779297,948.882751
	C2474.520508,962.159729 2466.279297,973.419189 2453.959717,981.138489
	C2441.928223,988.677246 2428.764160,991.868530 2414.778320,988.870178
	C2403.023682,986.350220 2399.390625,979.942993 2402.101318,968.359131
	C2403.009521,964.477661 2404.337402,960.683044 2405.647705,956.909241
	C2408.731445,948.028076 2410.044678,938.945862 2410.597900,929.521484
	C2411.494629,914.245911 2412.906738,898.942932 2415.193115,883.816589
	C2424.624512,821.417725 2446.719238,763.520569 2478.446533,709.161316
	C2485.314453,697.394165 2492.348145,685.723145 2499.362549,674.042175
	C2503.037354,667.923218 2508.418457,666.093994 2515.747070,668.550110
	C2520.468750,670.132446 2525.064209,672.088806 2529.769775,673.722900
	C2543.401123,678.456665 2546.291016,686.592773 2539.314453,699.237854
	C2536.467529,704.397278 2533.609375,709.948730 2532.596436,715.648865
	C2529.295166,734.230530 2526.842285,752.963074 2524.063721,771.630981
	C2532.671875,772.628601 2532.887207,772.407959 2539.977295,779.331177
	C2548.792969,787.939270 2557.395264,796.784424 2565.753418,805.837708
	C2580.647217,821.969666 2594.511475,838.989136 2612.607910,852.035339
	C2621.413818,858.383667 2628.661865,866.962219 2636.276367,874.858032
	C2639.190918,877.880432 2641.927246,880.179138 2646.339844,880.405029
	C2666.934570,881.459045 2687.520020,883.608521 2708.109863,883.621033
	C2734.287842,883.636963 2754.620850,871.578369 2769.333984,849.855530
	C2777.999023,837.062073 2784.190430,823.141479 2789.864990,808.851501
	C2792.909912,801.184082 2796.382568,793.360535 2801.285889,786.825623
	C2811.322510,773.448730 2824.645020,765.045349 2842.160645,765.532410
	C2856.354004,765.927124 2863.813721,773.714478 2862.883057,787.877197
	C2862.450684,794.455811 2861.446289,801.333191 2858.990479,807.380554
	C2851.042969,826.952087 2847.526123,847.707458 2841.666260,867.820618
	C2834.500977,892.413940 2828.271484,917.505127 2818.433838,941.042114
	C2803.302002,977.246887 2798.090332,978.975037 2764.370850,992.192383
	C2757.299072,994.964355 2749.932617,996.984192 2742.457275,999.430786
	C2742.213623,1001.773071 2741.891846,1003.708984 2741.827393,1005.653442
	C2740.603516,1042.616577 2739.332764,1079.578491 2738.231689,1116.545288
	C2737.180176,1151.852783 2736.344727,1187.166870 2735.317627,1222.475098
	C2735.205078,1226.347900 2734.451416,1230.202026 2733.995361,1234.064819
	C2733.548096,1234.058105 2733.101074,1234.051392 2732.654053,1234.044678
	C2716.202881,1156.975708 2699.751709,1079.906738 2683.243408,1002.568787
	C2658.415283,996.582947 2634.504150,990.725220 2610.533203,985.122864
	C2606.117920,984.090942 2601.460938,984.092896 2597.252441,983.652893
	C2590.825439,993.499023 2588.805908,1003.594910 2588.154297,1013.951355
	C2585.781494,1051.662354 2573.419434,1086.191284 2555.133545,1118.859863
	C2549.806641,1128.377075 2542.513428,1135.353027 2532.298340,1140.273315
	C2514.918945,1148.644653 2498.320068,1158.629028 2481.312744,1167.786255
	C2476.952148,1170.134155 2475.218506,1173.207031 2475.815186,1178.234009
	C2476.953125,1187.823120 2477.557861,1197.474365 2478.462158,1207.092407
	C2483.015625,1255.529419 2487.295166,1303.977051 2483.855225,1352.707275
	C2482.401367,1373.306030 2481.680908,1393.999878 2479.165527,1414.470947
	C2474.618896,1451.469482 2469.252686,1488.374878 2463.708252,1525.240845
	C2458.445801,1560.231567 2449.264160,1594.317993 2438.180420,1627.886597
	C2435.142334,1637.088257 2431.390381,1646.076294 2424.427734,1653.138306
	C2400.039062,1677.875732 2378.404297,1704.932007 2357.459717,1732.559448
	C2297.021240,1812.281738 2242.287842,1895.979370 2186.758057,1979.089844
	C2151.117920,2032.432007 2122.147217,2089.462891 2099.961426,2149.797852
	C2080.678711,2202.236816 2067.826416,2256.156494 2061.434082,2311.705566
	C2057.691406,2344.229004 2056.401123,2376.863037 2056.852539,2409.473145
	C2057.350342,2445.424072 2059.214844,2481.399902 2061.842041,2517.265625
	C2064.565918,2554.449219 2067.757080,2591.674072 2072.863525,2628.587646
	C2078.654297,2670.443848 2086.064697,2712.116455 2094.093506,2753.612549
	C2105.425293,2812.178711 2121.096680,2869.705566 2138.586670,2926.724854
	C2139.534668,2929.815430 2140.758301,2933.338623 2143.005127,2935.413330
	C2149.046631,2940.991455 2150.817871,2947.836182 2149.793945,2955.380615
	C2148.905518,2961.923828 2147.147705,2968.380127 2145.383789,2974.767090
	C2140.708008,2991.697998 2128.688232,2993.092041 2117.087891,2982.049316
	C2115.398438,2980.441162 2113.641113,2978.904541 2111.957275,2977.290527
	C2099.559570,2965.407715 2089.751953,2951.556396 2081.781738,2936.451416
	C2045.150024,2867.027832 2014.737915,2795.015381 1991.906128,2719.852295
	C1962.502930,2623.054932 1946.669800,2523.967529 1942.341309,2423.025146
	C1938.150024,2325.279053 1945.498291,2228.603516 1971.265381,2133.807861
	C1971.667847,2132.327393 1971.451294,2130.678711 1971.529663,2128.978271
	C1969.533813,2128.142822 1968.004761,2127.544434 1966.509644,2126.870117
	C1948.004150,2118.526123 1929.077881,2110.989014 1911.101074,2101.628662
	C1883.683228,2087.352295 1860.699951,2066.965332 1838.475830,2045.707275
	C1794.311157,2003.462036 1746.927979,1965.475098 1695.645508,1931.898071
	C1592.320312,1864.246460 1479.370117,1826.690308 1356.455688,1818.470337
	C1317.875244,1815.890259 1279.233765,1814.919067 1240.569458,1817.386230
	C1231.945801,1817.936279 1223.234253,1817.861938 1214.601196,1817.386108
	C1172.692627,1815.076416 1130.826416,1811.601196 1088.890259,1810.277832
	C1016.558350,1807.995239 944.278870,1808.895630 872.508789,1820.104858
	C818.927307,1828.473389 767.122681,1842.820312 717.421143,1864.766479
	C685.299622,1878.950317 655.152954,1896.608765 625.450989,1915.128784
	C567.040710,1951.549072 511.963348,1992.324097 462.353394,2040.228271
	C427.989319,2073.411133 395.556671,2108.468506 368.824982,2148.050781
	C310.922333,2233.788818 271.820526,2327.769775 249.987259,2428.895752
	C241.612991,2467.683350 236.034485,2506.866943 233.244858,2546.484375
	C230.361374,2587.435059 230.062881,2628.335449 233.275253,2669.265137
	C234.419968,2683.850342 235.755829,2698.419189 232.589172,2712.991943
	C225.310287,2746.489990 218.942307,2780.201660 210.942184,2813.523682
	C199.106705,2862.821045 198.620636,2862.709717 200.331573,2913.159180
	C200.512039,2918.480469 201.241684,2923.781982 201.469742,2929.103271
	C203.013260,2965.117920 207.659836,3000.791748 214.523117,3036.113525
	C242.983932,3182.587158 309.103210,3309.770020 411.514343,3418.138428
	C474.925354,3485.237549 547.735352,3540.462158 626.809937,3587.699951
	C699.963379,3631.400879 776.922485,3667.131348 856.414612,3697.618896
	C987.677490,3747.961914 1122.927734,3779.944092 1263.787720,3785.416748
	C1316.738525,3787.474121 1369.677002,3786.920654 1422.478638,3780.559082
	C1480.555664,3773.562012 1537.359375,3761.043945 1593.023682,3743.364990
	C1675.625732,3717.130859 1755.471802,3683.328369 1836.889160,3653.831055
	C1838.440308,3653.268799 1839.727783,3651.978516 1841.986938,3650.455566
	C1838.928711,3649.515381 1837.069214,3648.814941 1835.150269,3648.372314
	C1735.454712,3625.387207 1637.087402,3597.604004 1539.535034,3566.838379
	C1528.467773,3563.348145 1518.921753,3557.599365 1510.113892,3550.361084
	C1508.524902,3549.055420 1507.513672,3547.046387 1505.685425,3544.636719
	C1519.516357,3540.584473 1532.254395,3536.755615 1545.066895,3533.194336
	C1547.185913,3532.604980 1549.643921,3533.036377 1551.921753,3533.249023
	C1583.410645,3536.187988 1614.846069,3539.951904 1646.393921,3541.940186
	C1682.628784,3544.223877 1718.971069,3544.754883 1755.250000,3546.411865
	C1779.541504,3547.521240 1803.798096,3549.373291 1828.080688,3550.702393
	C1876.638306,3553.360352 1925.184448,3556.374268 1973.774048,3558.223145
	C1992.666748,3558.941895 2011.775269,3557.922119 2030.583374,3555.854980
	C2050.507080,3553.664795 2068.157959,3545.620605 2082.674316,3530.810303
	C2089.071533,3524.283936 2097.268555,3519.194336 2105.346191,3514.709229
	C2123.921387,3504.394775 2144.069336,3504.311768 2164.640381,3506.603760
	C2207.050293,3511.329346 2249.020996,3518.602295 2290.786865,3527.188232
	C2348.564697,3539.065674 2406.804932,3547.847412 2465.480957,3553.902344
	C2497.942627,3557.251953 2530.344238,3561.186523 2562.762939,3564.945557
	C2601.480225,3569.434814 2640.227295,3573.213135 2679.227295,3574.614502
	C2719.684082,3576.067627 2758.829346,3570.528564 2797.188232,3557.549561
	C2826.511963,3547.627686 2856.138916,3538.541748 2885.861328,3529.872803
	C2927.735352,3517.659424 2970.005615,3506.787354 3011.771729,3494.228027
	C3067.425293,3477.493164 3119.385498,3453.146729 3164.831299,3416.134033
	C3169.397705,3412.414795 3174.863770,3409.290527 3180.427979,3407.442139
	C3186.638428,3405.379395 3189.170898,3401.423340 3191.278076,3395.768066
	C3199.734863,3373.072021 3203.148682,3349.373779 3205.919678,3325.532715
	C3206.609131,3319.602051 3207.548340,3313.503418 3206.898193,3307.645752
	C3202.939209,3271.977295 3205.682617,3236.884033 3218.122803,3203.258301
	C3223.679688,3188.237793 3223.882324,3173.445068 3223.485107,3158.172119
	C3223.389648,3154.513428 3222.854004,3150.861572 3222.843750,3147.205811
	C3222.716797,3102.544189 3222.347168,3057.880615 3222.631836,3013.221436
	C3223.205566,2923.219482 3222.110352,2833.269287 3215.597168,2743.461670
	C3214.417236,2727.194092 3212.682617,2710.957520 3210.824219,2694.750244
	C3206.611816,2658.011719 3201.936279,2621.297852 3201.789795,2584.255859
	C3201.720215,2566.624268 3202.847656,2548.986572 3203.552246,2531.356201
	C3203.617920,2529.716797 3204.550049,2528.112061 3205.758545,2524.415283
	C3209.921387,2531.679688 3213.825684,2536.800293 3215.988281,2542.573242
	C3223.573242,2562.821533 3231.315430,2583.064697 3237.584717,2603.738281
	C3245.900879,2631.162354 3249.458740,2659.729492 3255.653809,2687.630371
	C3265.244629,2730.826416 3277.830566,2773.358154 3289.190186,2816.159912
	C3290.154541,2819.793457 3291.443604,2823.340576 3292.581543,2826.927979
	C3296.309570,2822.502441 3298.206543,2817.985596 3299.950928,2813.410156
	C3335.076416,2721.277344 3353.845703,2625.339111 3365.824707,2527.890381
	C3369.520996,2497.820801 3371.333496,2467.523682 3374.736328,2437.413086
	C3378.213623,2406.640625 3376.393799,2376.203125 3370.896484,2345.890869
	C3365.188232,2314.415771 3359.965332,2282.891846 3358.366455,2250.876953
	C3356.005127,2203.594238 3354.879639,2156.308838 3357.465088,2108.992432
	C3357.809814,2102.683350 3358.235596,2096.246094 3357.408691,2090.029785
	C3354.335449,2066.926758 3351.206299,2043.814209 3347.283203,2020.844360
	C3332.745850,1935.726929 3311.569824,1852.118408 3289.457031,1768.726318
	C3278.540283,1727.555298 3266.469482,1686.730225 3259.722656,1644.466553
	C3247.703613,1569.174561 3234.387939,1494.088135 3221.408447,1418.951294
	C3209.107910,1347.746826 3196.572266,1276.583008 3184.086426,1205.410767
	C3172.463623,1139.157959 3160.883545,1072.897339 3149.075195,1006.677551
	C3138.144287,945.375793 3126.945068,884.121765 3115.811035,822.856323
	C3115.438721,820.807983 3114.494385,818.863647 3113.270508,815.264771
	C3103.490479,843.039612 3097.187256,870.047058 3087.024414,895.790649
	C3084.965820,881.999939 3083.572510,868.420959 3082.346191,854.826904
	C3078.336426,810.376770 3074.341553,765.925110 3070.426514,721.466492
	C3064.788086,657.431030 3059.263916,593.385437 3053.562500,529.355591
	C3053.036377,523.444824 3052.986572,516.871765 3050.328613,511.875732
	C3037.318115,487.418884 3019.173340,467.838226 2993.017334,457.052460
	C2978.240479,450.959106 2963.306641,445.198547 2948.236816,439.872131
	C2865.009033,410.454865 2781.729980,381.182770 2698.436523,351.951965
	C2684.309814,346.994446 2670.289062,341.349304 2655.764160,337.990417
	C2623.330078,330.489868 2590.605957,324.245178 2558.005127,317.464783
	C2443.894531,293.731750 2329.791748,269.961731 2215.675293,246.256210
	C2090.801025,220.315948 1965.916138,194.426895 1841.031860,168.535538
	C1833.877197,167.052200 1826.685059,165.749268 1819.510254,164.362366
	C1839.234375,179.698303 1852.344238,198.699646 1859.457520,220.912064
	C1856.642700,225.759750 1854.418335,229.590775 1852.393188,233.078461
	C1837.348877,222.759659 1822.810791,212.217636 1807.673096,202.621338
	C1798.733032,196.953949 1789.171509,191.938034 1779.311768,188.120956
	C1760.424316,180.808762 1740.542847,179.074982 1720.346313,179.656128
	C1711.435059,179.912552 1704.701904,183.539062 1700.431519,190.839462
	C1696.939209,196.809769 1693.526489,203.317245 1692.261108,209.999863
	C1689.420654,224.999725 1687.258667,240.205338 1686.109253,255.424500
	C1685.133667,268.346222 1685.935059,281.404541 1686.012695,294.402039
	C1686.038330,298.684448 1686.248413,302.960663 1680.832886,305.437775
	C1679.551025,301.948639 1678.559937,298.802521 1677.254883,295.792603
	C1674.608887,289.689636 1672.280640,283.374023 1668.931763,277.668274
	C1663.975830,269.224487 1658.411255,269.395294 1653.250854,277.909607
	C1651.030029,281.574066 1649.172119,285.635834 1648.060181,289.762512
	C1644.424561,303.256409 1640.600464,316.746674 1637.971069,330.453613
	C1633.958130,351.374207 1631.126953,372.518555 1627.359497,393.489838
	C1618.295044,443.947998 1608.978271,494.360870 1599.536865,546.508728
M1778.002319,1015.282288
	C1723.243286,999.434570 1672.352417,961.792969 1640.644653,913.685120
	C1630.899536,931.887329 1625.716553,963.165588 1628.302612,981.304077
	C1629.992310,993.154602 1631.162476,1005.089966 1632.178101,1017.020203
	C1632.546387,1021.349304 1633.752808,1024.435059 1637.609009,1026.871948
	C1655.683350,1038.294067 1674.242554,1048.623291 1694.952515,1054.583374
	C1736.000732,1066.396606 1770.234497,1054.077026 1799.765381,1025.072876
	C1800.623413,1024.230103 1801.098389,1022.997498 1802.273682,1021.107971
	C1794.195923,1019.196167 1786.883911,1017.465576 1778.002319,1015.282288
z"/>
<path fill="#F01100" opacity="1.000000" stroke="none"
	d="
M1599.650146,545.650391
	C1608.978271,494.360870 1618.295044,443.947998 1627.359497,393.489838
	C1631.126953,372.518555 1633.958130,351.374207 1637.971069,330.453613
	C1640.600464,316.746674 1644.424561,303.256409 1648.060181,289.762512
	C1649.172119,285.635834 1651.030029,281.574066 1653.250854,277.909607
	C1658.411255,269.395294 1663.975830,269.224487 1668.931763,277.668274
	C1672.280640,283.374023 1674.608887,289.689636 1677.254883,295.792603
	C1678.559937,298.802521 1679.551025,301.948639 1680.832886,305.437775
	C1686.248413,302.960663 1686.038330,298.684448 1686.012695,294.402039
	C1685.935059,281.404541 1685.133667,268.346222 1686.109253,255.424500
	C1687.258667,240.205338 1689.420654,224.999725 1692.261108,209.999863
	C1693.526489,203.317245 1696.939209,196.809769 1700.431519,190.839462
	C1704.701904,183.539062 1711.435059,179.912552 1720.346313,179.656128
	C1740.542847,179.074982 1760.424316,180.808762 1779.311768,188.120956
	C1789.171509,191.938034 1798.733032,196.953949 1807.673096,202.621338
	C1822.810791,212.217636 1837.348877,222.759659 1852.393188,233.078461
	C1854.418335,229.590775 1856.642700,225.759750 1859.457520,220.912064
	C1852.344238,198.699646 1839.234375,179.698303 1819.510254,164.362366
	C1826.685059,165.749268 1833.877197,167.052200 1841.031860,168.535538
	C1965.916138,194.426895 2090.801025,220.315948 2215.675293,246.256210
	C2329.791748,269.961731 2443.894531,293.731750 2558.005127,317.464783
	C2590.605957,324.245178 2623.330078,330.489868 2655.764160,337.990417
	C2670.289062,341.349304 2684.309814,346.994446 2698.436523,351.951965
	C2781.729980,381.182770 2865.009033,410.454865 2948.236816,439.872131
	C2963.306641,445.198547 2978.240479,450.959106 2993.017334,457.052460
	C3019.173340,467.838226 3037.318115,487.418884 3050.328613,511.875732
	C3052.986572,516.871765 3053.036377,523.444824 3053.562500,529.355591
	C3059.263916,593.385437 3064.788086,657.431030 3070.426514,721.466492
	C3074.341553,765.925110 3078.336426,810.376770 3082.346191,854.826904
	C3083.572510,868.420959 3084.965820,881.999939 3087.024414,895.790649
	C3097.187256,870.047058 3103.490479,843.039612 3113.270508,815.264771
	C3114.494385,818.863647 3115.438721,820.807983 3115.811035,822.856323
	C3126.945068,884.121765 3138.144287,945.375793 3149.075195,1006.677551
	C3160.883545,1072.897339 3172.463623,1139.157959 3184.086426,1205.410767
	C3196.572266,1276.583008 3209.107910,1347.746826 3221.408447,1418.951294
	C3234.387939,1494.088135 3247.703613,1569.174561 3259.722656,1644.466553
	C3266.469482,1686.730225 3278.540283,1727.555298 3289.457031,1768.726318
	C3311.569824,1852.118408 3332.745850,1935.726929 3347.283203,2020.844360
	C3351.206299,2043.814209 3354.335449,2066.926758 3357.408691,2090.029785
	C3358.235596,2096.246094 3357.809814,2102.683350 3357.465088,2108.992432
	C3354.879639,2156.308838 3356.005127,2203.594238 3358.366455,2250.876953
	C3359.965332,2282.891846 3365.188232,2314.415771 3370.896484,2345.890869
	C3376.393799,2376.203125 3378.213623,2406.640625 3374.736328,2437.413086
	C3371.333496,2467.523682 3369.520996,2497.820801 3365.824707,2527.890381
	C3353.845703,2625.339111 3335.076416,2721.277344 3299.950928,2813.410156
	C3298.206543,2817.985596 3296.309570,2822.502441 3292.581543,2826.927979
	C3291.443604,2823.340576 3290.154541,2819.793457 3289.190186,2816.159912
	C3277.830566,2773.358154 3265.244629,2730.826416 3255.653809,2687.630371
	C3249.458740,2659.729492 3245.900879,2631.162354 3237.584717,2603.738281
	C3231.315430,2583.064697 3223.573242,2562.821533 3215.988281,2542.573242
	C3213.825684,2536.800293 3209.921387,2531.679688 3205.758545,2524.415283
	C3204.550049,2528.112061 3203.617920,2529.716797 3203.552246,2531.356201
	C3202.847656,2548.986572 3201.720215,2566.624268 3201.789795,2584.255859
	C3201.936279,2621.297852 3206.611816,2658.011719 3210.824219,2694.750244
	C3212.682617,2710.957520 3214.417236,2727.194092 3215.597168,2743.461670
	C3222.110352,2833.269287 3223.205566,2923.219482 3222.631836,3013.221436
	C3222.347168,3057.880615 3222.716797,3102.544189 3222.843750,3147.205811
	C3222.854004,3150.861572 3223.389648,3154.513428 3223.485107,3158.172119
	C3223.882324,3173.445068 3223.679688,3188.237793 3218.122803,3203.258301
	C3205.682617,3236.884033 3202.939209,3271.977295 3206.898193,3307.645752
	C3207.548340,3313.503418 3206.609131,3319.602051 3205.919678,3325.532715
	C3203.148682,3349.373779 3199.734863,3373.072021 3191.278076,3395.768066
	C3189.170898,3401.423340 3186.638428,3405.379395 3180.427979,3407.442139
	C3174.863770,3409.290527 3169.397705,3412.414795 3164.831299,3416.134033
	C3119.385498,3453.146729 3067.425293,3477.493164 3011.771729,3494.228027
	C2970.005615,3506.787354 2927.735352,3517.659424 2885.861328,3529.872803
	C2856.138916,3538.541748 2826.511963,3547.627686 2797.188232,3557.549561
	C2758.829346,3570.528564 2719.684082,3576.067627 2679.227295,3574.614502
	C2640.227295,3573.213135 2601.480225,3569.434814 2562.762939,3564.945557
	C2530.344238,3561.186523 2497.942627,3557.251953 2465.480957,3553.902344
	C2406.804932,3547.847412 2348.564697,3539.065674 2290.786865,3527.188232
	C2249.020996,3518.602295 2207.050293,3511.329346 2164.640381,3506.603760
	C2144.069336,3504.311768 2123.921387,3504.394775 2105.346191,3514.709229
	C2097.268555,3519.194336 2089.071533,3524.283936 2082.674316,3530.810303
	C2068.157959,3545.620605 2050.507080,3553.664795 2030.583374,3555.854980
	C2011.775269,3557.922119 1992.666748,3558.941895 1973.774048,3558.223145
	C1925.184448,3556.374268 1876.638306,3553.360352 1828.080688,3550.702393
	C1803.798096,3549.373291 1779.541504,3547.521240 1755.250000,3546.411865
	C1718.971069,3544.754883 1682.628784,3544.223877 1646.393921,3541.940186
	C1614.846069,3539.951904 1583.410645,3536.187988 1551.921753,3533.249023
	C1549.643921,3533.036377 1547.185913,3532.604980 1545.066895,3533.194336
	C1532.254395,3536.755615 1519.516357,3540.584473 1505.685425,3544.636719
	C1507.513672,3547.046387 1508.524902,3549.055420 1510.113892,3550.361084
	C1518.921753,3557.599365 1528.467773,3563.348145 1539.535034,3566.838379
	C1637.087402,3597.604004 1735.454712,3625.387207 1835.150269,3648.372314
	C1837.069214,3648.814941 1838.928711,3649.515381 1841.986938,3650.455566
	C1839.727783,3651.978516 1838.440308,3653.268799 1836.889160,3653.831055
	C1755.471802,3683.328369 1675.625732,3717.130859 1593.023682,3743.364990
	C1537.359375,3761.043945 1480.555664,3773.562012 1422.478638,3780.559082
	C1369.677002,3786.920654 1316.738525,3787.474121 1263.787720,3785.416748
	C1122.927734,3779.944092 987.677490,3747.961914 856.414612,3697.618896
	C776.922485,3667.131348 699.963379,3631.400879 626.809937,3587.699951
	C547.735352,3540.462158 474.925354,3485.237549 411.514343,3418.138428
	C309.103210,3309.770020 242.983932,3182.587158 214.523117,3036.113525
	C207.659836,3000.791748 203.013260,2965.117920 201.469742,2929.103271
	C201.241684,2923.781982 200.512039,2918.480469 200.331573,2913.159180
	C198.620636,2862.709717 199.106705,2862.821045 210.942184,2813.523682
	C218.942307,2780.201660 225.310287,2746.489990 232.589172,2712.991943
	C235.755829,2698.419189 234.419968,2683.850342 233.275253,2669.265137
	C230.062881,2628.335449 230.361374,2587.435059 233.244858,2546.484375
	C236.034485,2506.866943 241.612991,2467.683350 249.987259,2428.895752
	C271.820526,2327.769775 310.922333,2233.788818 368.824982,2148.050781
	C395.556671,2108.468506 427.989319,2073.411133 462.353394,2040.228271
	C511.963348,1992.324097 567.040710,1951.549072 625.450989,1915.128784
	C655.152954,1896.608765 685.299622,1878.950317 717.421143,1864.766479
	C767.122681,1842.820312 818.927307,1828.473389 872.508789,1820.104858
	C944.278870,1808.895630 1016.558350,1807.995239 1088.890259,1810.277832
	C1130.826416,1811.601196 1172.692627,1815.076416 1214.601196,1817.386108
	C1223.234253,1817.861938 1231.945801,1817.936279 1240.569458,1817.386230
	C1279.233765,1814.919067 1317.875244,1815.890259 1356.455688,1818.470337
	C1479.370117,1826.690308 1592.320312,1864.246460 1695.645508,1931.898071
	C1746.927979,1965.475098 1794.311157,2003.462036 1838.475830,2045.707275
	C1860.699951,2066.965332 1883.683228,2087.352295 1911.101074,2101.628662
	C1929.077881,2110.989014 1948.004150,2118.526123 1966.509644,2126.870117
	C1968.004761,2127.544434 1969.533813,2128.142822 1971.529663,2128.978271
	C1971.451294,2130.678711 1971.667847,2132.327393 1971.265381,2133.807861
	C1945.498291,2228.603516 1938.150024,2325.279053 1942.341309,2423.025146
	C1946.669800,2523.967529 1962.502930,2623.054932 1991.906128,2719.852295
	C2014.737915,2795.015381 2045.150024,2867.027832 2081.781738,2936.451416
	C2089.751953,2951.556396 2099.559570,2965.407715 2111.957275,2977.290527
	C2113.641113,2978.904541 2115.398438,2980.441162 2117.087891,2982.049316
	C2128.688232,2993.092041 2140.708008,2991.697998 2145.383789,2974.767090
	C2147.147705,2968.380127 2148.905518,2961.923828 2149.793945,2955.380615
	C2150.817871,2947.836182 2149.046631,2940.991455 2143.005127,2935.413330
	C2140.758301,2933.338623 2139.534668,2929.815430 2138.586670,2926.724854
	C2121.096680,2869.705566 2105.425293,2812.178711 2094.093506,2753.612549
	C2086.064697,2712.116455 2078.654297,2670.443848 2072.863525,2628.587646
	C2067.757080,2591.674072 2064.565918,2554.449219 2061.842041,2517.265625
	C2059.214844,2481.399902 2057.350342,2445.424072 2056.852539,2409.473145
	C2056.401123,2376.863037 2057.691406,2344.229004 2061.434082,2311.705566
	C2067.826416,2256.156494 2080.678711,2202.236816 2099.961426,2149.797852
	C2122.147217,2089.462891 2151.117920,2032.432007 2186.758057,1979.089844
	C2242.287842,1895.979370 2297.021240,1812.281738 2357.459717,1732.559448
	C2378.404297,1704.932007 2400.039062,1677.875732 2424.427734,1653.138306
	C2431.390381,1646.076294 2435.142334,1637.088257 2438.180420,1627.886597
	C2449.264160,1594.317993 2458.445801,1560.231567 2463.708252,1525.240845
	C2469.252686,1488.374878 2474.618896,1451.469482 2479.165527,1414.470947
	C2481.680908,1393.999878 2482.401367,1373.306030 2483.855225,1352.707275
	C2487.295166,1303.977051 2483.015625,1255.529419 2478.462158,1207.092407
	C2477.557861,1197.474365 2476.953125,1187.823120 2475.815186,1178.234009
	C2475.218506,1173.207031 2476.952148,1170.134155 2481.312744,1167.786255
	C2498.320068,1158.629028 2514.918945,1148.644653 2532.298340,1140.273315
	C2542.513428,1135.353027 2549.806641,1128.377075 2555.133545,1118.859863
	C2573.419434,1086.191284 2585.781494,1051.662354 2588.154297,1013.951355
	C2588.805908,1003.594910 2590.825439,993.499023 2597.252441,983.652893
	C2601.460938,984.092896 2606.117920,984.090942 2610.533203,985.122864
	C2634.504150,990.725220 2658.415283,996.582947 2683.243408,1002.568787
	C2699.751709,1079.906738 2716.202881,1156.975708 2732.654053,1234.044678
	C2733.101074,1234.051392 2733.548096,1234.058105 2733.995361,1234.064819
	C2734.451416,1230.202026 2735.205078,1226.347900 2735.317627,1222.475098
	C2736.344727,1187.166870 2737.180176,1151.852783 2738.231689,1116.545288
	C2739.332764,1079.578491 2740.603516,1042.616577 2741.827393,1005.653442
	C2741.891846,1003.708984 2742.213623,1001.773071 2742.457275,999.430786
	C2749.932617,996.984192 2757.299072,994.964355 2764.370850,992.192383
	C2798.090332,978.975037 2803.302002,977.246887 2818.433838,941.042114
	C2828.271484,917.505127 2834.500977,892.413940 2841.666260,867.820618
	C2847.526123,847.707458 2851.042969,826.952087 2858.990479,807.380554
	C2861.446289,801.333191 2862.450684,794.455811 2862.883057,787.877197
	C2863.813721,773.714478 2856.354004,765.927124 2842.160645,765.532410
	C2824.645020,765.045349 2811.322510,773.448730 2801.285889,786.825623
	C2796.382568,793.360535 2792.909912,801.184082 2789.864990,808.851501
	C2784.190430,823.141479 2777.999023,837.062073 2769.333984,849.855530
	C2754.620850,871.578369 2734.287842,883.636963 2708.109863,883.621033
	C2687.520020,883.608521 2666.934570,881.459045 2646.339844,880.405029
	C2641.927246,880.179138 2639.190918,877.880432 2636.276367,874.858032
	C2628.661865,866.962219 2621.413818,858.383667 2612.607910,852.035339
	C2594.511475,838.989136 2580.647217,821.969666 2565.753418,805.837708
	C2557.395264,796.784424 2548.792969,787.939270 2539.977295,779.331177
	C2532.887207,772.407959 2532.671875,772.628601 2524.063721,771.630981
	C2526.842285,752.963074 2529.295166,734.230530 2532.596436,715.648865
	C2533.609375,709.948730 2536.467529,704.397278 2539.314453,699.237854
	C2546.291016,686.592773 2543.401123,678.456665 2529.769775,673.722900
	C2525.064209,672.088806 2520.468750,670.132446 2515.747070,668.550110
	C2508.418457,666.093994 2503.037354,667.923218 2499.362549,674.042175
	C2492.348145,685.723145 2485.314453,697.394165 2478.446533,709.161316
	C2446.719238,763.520569 2424.624512,821.417725 2415.193115,883.816589
	C2412.906738,898.942932 2411.494629,914.245911 2410.597900,929.521484
	C2410.044678,938.945862 2408.731445,948.028076 2405.647705,956.909241
	C2404.337402,960.683044 2403.009521,964.477661 2402.101318,968.359131
	C2399.390625,979.942993 2403.023682,986.350220 2414.778320,988.870178
	C2428.764160,991.868530 2441.928223,988.677246 2453.959717,981.138489
	C2466.279297,973.419189 2474.520508,962.159729 2479.779297,948.882751
	C2486.399170,932.168213 2492.367920,915.195801 2498.625732,898.337646
	C2499.772705,895.247742 2500.959229,892.172302 2502.465576,888.198120
	C2511.638428,893.416626 2519.274414,899.464844 2525.890137,906.925659
	C2529.287109,910.756226 2528.485840,915.159241 2527.516602,919.267456
	C2525.300537,928.661438 2522.957031,938.063477 2519.939941,947.223328
	C2509.099365,980.134033 2498.356201,1013.064697 2491.870605,1047.183594
	C2490.584717,1053.948486 2487.132324,1058.300781 2481.018311,1061.535645
	C2452.723633,1076.505859 2422.637695,1085.380615 2391.061523,1090.266724
	C2323.624512,1100.702148 2260.709229,1085.436523 2199.855225,1057.789917
	C2191.384521,1053.941528 2183.365234,1049.110352 2175.017578,1044.975586
	C2169.812012,1042.397217 2169.215820,1038.580566 2170.377441,1033.385986
	C2177.353271,1002.191833 2184.377686,971.005371 2190.941162,939.723022
	C2206.393799,866.075439 2220.960693,792.257263 2232.225098,717.827759
	C2233.619873,708.611816 2234.681396,699.326416 2236.562012,690.210327
	C2237.687012,684.757690 2239.749756,679.415039 2242.011719,674.297058
	C2247.490479,661.899658 2251.259521,649.437195 2248.101562,635.612915
	C2242.911621,612.893677 2221.034424,606.039124 2206.214111,608.806641
	C2195.264893,610.851135 2187.201416,617.561462 2183.681396,628.016846
	C2180.960205,636.099915 2180.083740,644.821472 2178.585938,653.294373
	C2176.856445,663.076050 2176.718018,673.372314 2173.511475,682.620850
	C2155.580078,734.338135 2142.816650,787.450867 2130.219971,840.587891
	C2118.160645,891.457275 2107.010498,942.544312 2095.801270,993.610474
	C2094.367188,1000.144592 2091.294678,1004.019897 2085.010010,1004.591675
	C2076.800537,1005.338440 2068.218750,1006.821106 2060.317871,1005.293335
	C2026.446777,998.743958 1995.795898,984.431274 1968.044067,963.998108
	C1959.568848,957.757935 1959.702637,957.518494 1963.182861,947.395386
	C1992.109375,863.257019 2018.286011,778.305176 2038.780273,691.675598
	C2048.980957,648.557678 2057.931396,605.197693 2063.745361,561.237549
	C2064.050049,558.933777 2064.724854,556.681519 2065.135254,554.388794
	C2069.224121,531.537354 2056.488037,507.851868 2035.221313,498.721771
	C2024.089966,493.942963 2014.910034,498.858917 2011.925415,511.177551
	C2009.015869,523.187439 2011.135864,535.089050 2013.122803,546.885925
	C2014.112061,552.759888 2013.857910,558.016357 2011.146240,563.316528
	C1984.836182,614.741455 1963.723022,668.309814 1945.194458,722.959839
	C1923.671753,786.440979 1906.425293,851.082825 1892.085815,916.528748
	C1891.740601,918.104614 1891.293091,919.658081 1890.685791,922.033447
	C1880.537720,922.033447 1870.579834,922.699036 1860.740601,921.901794
	C1836.427734,919.931824 1812.445312,916.070496 1790.020264,905.697998
	C1780.014282,901.069885 1770.569702,895.690674 1762.280396,888.151611
	C1753.139526,879.838257 1751.589722,870.543091 1755.609863,859.311890
	C1762.906006,838.928833 1769.986206,818.465271 1776.893311,797.946655
	C1802.088379,723.101746 1824.928345,647.542297 1842.411743,570.507690
	C1851.321777,531.248413 1858.193726,491.526672 1866.000366,452.016632
	C1866.386597,450.062378 1866.614258,448.007294 1867.403076,446.213409
	C1871.957275,435.855927 1869.168457,426.533447 1863.133911,417.958069
	C1851.443848,401.346558 1835.057861,390.494568 1816.722900,382.818726
	C1809.167603,379.655701 1800.692749,380.926605 1794.223999,386.898102
	C1788.094849,392.556244 1788.348633,399.995789 1790.224487,407.386841
	C1792.929688,418.045685 1799.014648,426.993225 1806.700317,434.393768
	C1813.947021,441.371552 1814.447754,448.123932 1810.396851,456.678192
	C1799.989014,478.656189 1789.969849,500.817932 1779.738281,522.879761
	C1739.325073,610.019592 1709.558838,700.595032 1691.806152,795.055786
	C1691.509888,796.631592 1690.889160,798.146362 1690.192871,800.435913
	C1688.329834,799.828430 1686.691284,799.667358 1685.501831,798.851562
	C1659.068481,780.720520 1629.385864,769.855713 1599.204224,760.081055
	C1591.282227,757.515320 1583.444336,754.684082 1575.489990,752.226196
	C1571.303711,750.932617 1568.559937,748.555237 1567.257935,744.350830
	C1564.304932,734.814270 1560.972046,725.382751 1558.414551,715.743774
	C1557.629395,712.784241 1558.181641,709.041504 1559.268066,706.077698
	C1577.564575,656.161621 1589.358276,604.611328 1598.293945,552.327820
	C1598.627808,550.374390 1599.119019,548.447815 1599.650146,545.650391
M701.234619,2891.853271
	C678.075378,2880.834473 654.696594,2870.251465 631.797424,2858.716309
	C559.662354,2822.377930 491.492249,2779.302979 424.050171,2735.070312
	C412.701172,2727.626953 400.855896,2722.151367 387.816650,2718.923584
	C382.645172,2717.643311 377.529083,2716.031982 372.289978,2715.157227
	C364.760986,2713.900146 357.164764,2712.833740 349.554871,2712.344238
	C343.998230,2711.986572 338.645935,2713.711182 336.455902,2719.492676
	C334.458557,2724.765381 337.154633,2729.216553 340.644257,2733.077148
	C341.977539,2734.552002 343.621368,2735.741211 345.051025,2737.134766
	C348.130096,2740.136230 351.479645,2742.929199 354.165619,2746.254150
	C395.744781,2797.725098 441.586670,2844.994141 492.137451,2887.743408
	C607.734131,2985.499268 739.455078,3052.478516 884.560974,3094.047607
	C966.472412,3117.513184 1050.066528,3131.727051 1134.813599,3139.659424
	C1145.218018,3140.633545 1155.317139,3140.061523 1165.447754,3137.199707
	C1173.407593,3134.951172 1181.606079,3132.928223 1189.813721,3132.292969
	C1212.384644,3130.545410 1235.057251,3130.075928 1257.615601,3128.207275
	C1312.575195,3123.655762 1366.363403,3112.739258 1419.212402,3097.098389
	C1507.543091,3070.956299 1590.544678,3032.353760 1670.743042,2987.696045
	C1733.886597,2952.535156 1796.103760,2915.707520 1858.593506,2879.380615
	C1864.542603,2875.922607 1869.707031,2870.986572 1874.845947,2866.308594
	C1878.212280,2863.244141 1879.651855,2858.951172 1877.958984,2854.430908
	C1876.195435,2849.721924 1871.918945,2848.464355 1867.437744,2848.251709
	C1863.454956,2848.062500 1859.352295,2847.845215 1855.468994,2848.553467
	C1838.443481,2851.659180 1821.145874,2853.921875 1804.550415,2858.621582
	C1739.511719,2877.039307 1674.703491,2896.270996 1609.805786,2915.187012
	C1531.484619,2938.015869 1453.223389,2961.080566 1373.152100,2977.226807
	C1322.136353,2987.514160 1270.705200,2994.605713 1218.622803,2995.909424
	C1179.632080,2996.885742 1140.698364,2995.457031 1101.773438,2992.666748
	C1053.529419,2989.208008 1005.696838,2982.824707 958.301392,2973.466309
	C870.073792,2956.045410 784.867371,2928.874756 701.234619,2891.853271
M2116.787598,385.897614
	C2125.253662,380.112701 2133.679688,374.268036 2142.203613,368.569733
	C2146.076172,365.980835 2150.200684,366.070404 2154.599609,367.598358
	C2172.192627,373.709290 2189.980469,379.283173 2207.432373,385.766266
	C2217.556885,389.527283 2227.676025,391.958893 2238.493896,392.157806
	C2245.451904,392.285797 2252.432129,393.207855 2259.328125,394.261353
	C2269.326904,395.788879 2277.941895,400.421997 2286.195312,409.348175
	C2287.797119,398.960846 2296.039307,400.030945 2302.017578,396.975189
	C2301.307617,395.475494 2300.969971,394.138977 2300.176758,393.178772
	C2281.286133,370.310486 2259.311768,350.896515 2232.097412,338.867798
	C2194.759277,322.364410 2155.140381,318.753418 2114.755615,321.790894
	C2113.125244,321.913544 2111.200439,321.987244 2109.961426,322.861298
	C2095.302246,333.204285 2080.653809,342.796051 2077.890381,363.474335
	C2073.676758,395.001740 2073.351807,426.515533 2074.374268,458.140717
	C2074.474609,461.242645 2075.655029,464.934082 2077.634277,467.232086
	C2083.264648,473.769135 2089.319336,480.002167 2095.725342,485.780029
	C2098.379150,488.173615 2102.351562,489.105103 2107.701416,491.637177
	C2107.701416,486.218384 2108.763184,482.550812 2107.510742,480.035828
	C2102.983398,470.945129 2105.784668,462.688782 2108.955078,454.203003
	C2110.230713,450.789429 2110.820312,447.125977 2111.893799,443.628906
	C2113.209229,439.343903 2113.084961,435.591125 2110.826416,431.311829
	C2102.515625,415.566193 2103.819092,400.576019 2116.787598,385.897614
M1868.146118,257.170563
	C1861.504761,270.927521 1854.654663,284.589783 1848.343628,298.496613
	C1846.341797,302.907623 1844.823730,307.957794 1844.759399,312.738037
	C1844.637695,321.762970 1846.508545,330.478943 1851.713257,338.340607
	C1857.036011,346.380798 1861.692383,354.859985 1866.749390,363.080078
	C1867.870361,364.902344 1869.448242,366.443573 1871.345703,368.761383
	C1878.948120,359.177490 1883.136597,348.616669 1883.753662,337.941345
	C1884.876831,318.509674 1895.212280,305.166718 1908.651733,293.179474
	C1914.631958,287.845459 1921.920776,285.457550 1929.929321,286.427368
	C1941.803345,287.865417 1953.791626,288.929260 1965.453125,291.442566
	C1995.862671,297.996460 2024.344727,310.235657 2052.810059,322.413757
	C2063.330811,326.914825 2069.250977,325.472015 2078.184814,315.929352
	C2057.779053,287.906586 2033.207397,264.495667 2002.173706,248.323029
	C1978.646851,236.062485 1953.765259,229.626038 1927.085571,232.446945
	C1913.215820,233.913406 1899.438721,236.239243 1885.594727,237.976364
	C1879.725098,238.712906 1875.848511,241.982559 1873.066040,246.798462
	C1871.407593,249.668930 1870.146606,252.769073 1868.146118,257.170563
M2306.342285,461.388733
	C2304.678711,478.276917 2302.897705,495.154663 2301.396240,512.057251
	C2300.513916,521.990784 2300.020996,531.960876 2299.496094,541.922058
	C2299.415527,543.454285 2299.569336,545.669922 2300.530762,546.472168
	C2305.206787,550.375000 2309.541504,555.578491 2317.327393,553.285217
	C2320.223633,540.501770 2322.707275,527.794250 2326.023438,515.307861
	C2331.088379,496.236938 2338.109375,477.973358 2349.743652,461.714539
	C2352.891846,457.315216 2356.167236,455.671326 2361.511230,456.787964
	C2372.583008,459.101440 2383.789307,460.769043 2394.871582,463.037201
	C2419.654297,468.109467 2444.300293,474.350189 2469.796387,474.163818
	C2480.921387,474.082489 2490.774414,476.719330 2499.877930,482.897125
	C2502.871094,484.928223 2506.021240,487.384552 2509.891602,484.930267
	C2512.176025,483.481445 2513.391113,475.774872 2511.436768,472.741943
	C2510.079346,470.635468 2507.789551,468.916992 2505.572021,467.609161
	C2470.695557,447.042023 2434.309082,429.943512 2394.555908,421.122101
	C2374.013428,416.563629 2353.290039,413.270599 2332.410645,419.894684
	C2329.605713,420.784576 2326.449951,421.102539 2323.507324,420.909790
	C2317.756836,420.533081 2314.939453,423.249146 2313.758301,428.536835
	C2311.437256,438.927185 2309.004395,449.292511 2306.342285,461.388733
z"/>
<path fill="#EC1201" opacity="1.000000" stroke="none"
	d="
M1778.787109,1015.508667
	C1786.883911,1017.465576 1794.195923,1019.196167 1802.273682,1021.107971
	C1801.098389,1022.997498 1800.623413,1024.230103 1799.765381,1025.072876
	C1770.234497,1054.077026 1736.000732,1066.396606 1694.952515,1054.583374
	C1674.242554,1048.623291 1655.683350,1038.294067 1637.609009,1026.871948
	C1633.752808,1024.435059 1632.546387,1021.349304 1632.178101,1017.020203
	C1631.162476,1005.089966 1629.992310,993.154602 1628.302612,981.304077
	C1625.716553,963.165588 1630.899536,931.887329 1640.644653,913.685120
	C1672.352417,961.792969 1723.243286,999.434570 1778.787109,1015.508667
z"/>
<path fill="#020000" opacity="1.000000" stroke="none"
	d="
M701.931152,2892.151123
	C784.867371,2928.874756 870.073792,2956.045410 958.301392,2973.466309
	C1005.696838,2982.824707 1053.529419,2989.208008 1101.773438,2992.666748
	C1140.698364,2995.457031 1179.632080,2996.885742 1218.622803,2995.909424
	C1270.705200,2994.605713 1322.136353,2987.514160 1373.152100,2977.226807
	C1453.223389,2961.080566 1531.484619,2938.015869 1609.805786,2915.187012
	C1674.703491,2896.270996 1739.511719,2877.039307 1804.550415,2858.621582
	C1821.145874,2853.921875 1838.443481,2851.659180 1855.468994,2848.553467
	C1859.352295,2847.845215 1863.454956,2848.062500 1867.437744,2848.251709
	C1871.918945,2848.464355 1876.195435,2849.721924 1877.958984,2854.430908
	C1879.651855,2858.951172 1878.212280,2863.244141 1874.845947,2866.308594
	C1869.707031,2870.986572 1864.542603,2875.922607 1858.593506,2879.380615
	C1796.103760,2915.707520 1733.886597,2952.535156 1670.743042,2987.696045
	C1590.544678,3032.353760 1507.543091,3070.956299 1419.212402,3097.098389
	C1366.363403,3112.739258 1312.575195,3123.655762 1257.615601,3128.207275
	C1235.057251,3130.075928 1212.384644,3130.545410 1189.813721,3132.292969
	C1181.606079,3132.928223 1173.407593,3134.951172 1165.447754,3137.199707
	C1155.317139,3140.061523 1145.218018,3140.633545 1134.813599,3139.659424
	C1050.066528,3131.727051 966.472412,3117.513184 884.560974,3094.047607
	C739.455078,3052.478516 607.734131,2985.499268 492.137451,2887.743408
	C441.586670,2844.994141 395.744781,2797.725098 354.165619,2746.254150
	C351.479645,2742.929199 348.130096,2740.136230 345.051025,2737.134766
	C343.621368,2735.741211 341.977539,2734.552002 340.644257,2733.077148
	C337.154633,2729.216553 334.458557,2724.765381 336.455902,2719.492676
	C338.645935,2713.711182 343.998230,2711.986572 349.554871,2712.344238
	C357.164764,2712.833740 364.760986,2713.900146 372.289978,2715.157227
	C377.529083,2716.031982 382.645172,2717.643311 387.816650,2718.923584
	C400.855896,2722.151367 412.701172,2727.626953 424.050171,2735.070312
	C491.492249,2779.302979 559.662354,2822.377930 631.797424,2858.716309
	C654.696594,2870.251465 678.075378,2880.834473 701.931152,2892.151123
z"/>
<path fill="#060101" opacity="1.000000" stroke="none"
	d="
M2116.285156,386.417114
	C2103.819092,400.576019 2102.515625,415.566193 2110.826416,431.311829
	C2113.084961,435.591125 2113.209229,439.343903 2111.893799,443.628906
	C2110.820312,447.125977 2110.230713,450.789429 2108.955078,454.203003
	C2105.784668,462.688782 2102.983398,470.945129 2107.510742,480.035828
	C2108.763184,482.550812 2107.701416,486.218384 2107.701416,491.637177
	C2102.351562,489.105103 2098.379150,488.173615 2095.725342,485.780029
	C2089.319336,480.002167 2083.264648,473.769135 2077.634277,467.232086
	C2075.655029,464.934082 2074.474609,461.242645 2074.374268,458.140717
	C2073.351807,426.515533 2073.676758,395.001740 2077.890381,363.474335
	C2080.653809,342.796051 2095.302246,333.204285 2109.961426,322.861298
	C2111.200439,321.987244 2113.125244,321.913544 2114.755615,321.790894
	C2155.140381,318.753418 2194.759277,322.364410 2232.097412,338.867798
	C2259.311768,350.896515 2281.286133,370.310486 2300.176758,393.178772
	C2300.969971,394.138977 2301.307617,395.475494 2302.017578,396.975189
	C2296.039307,400.030945 2287.797119,398.960846 2286.195312,409.348175
	C2277.941895,400.421997 2269.326904,395.788879 2259.328125,394.261353
	C2252.432129,393.207855 2245.451904,392.285797 2238.493896,392.157806
	C2227.676025,391.958893 2217.556885,389.527283 2207.432373,385.766266
	C2189.980469,379.283173 2172.192627,373.709290 2154.599609,367.598358
	C2150.200684,366.070404 2146.076172,365.980835 2142.203613,368.569733
	C2133.679688,374.268036 2125.253662,380.112701 2116.285156,386.417114
z"/>
<path fill="#050101" opacity="1.000000" stroke="none"
	d="
M1868.426514,256.468262
	C1870.146606,252.769073 1871.407593,249.668930 1873.066040,246.798462
	C1875.848511,241.982559 1879.725098,238.712906 1885.594727,237.976364
	C1899.438721,236.239243 1913.215820,233.913406 1927.085571,232.446945
	C1953.765259,229.626038 1978.646851,236.062485 2002.173706,248.323029
	C2033.207397,264.495667 2057.779053,287.906586 2078.184814,315.929352
	C2069.250977,325.472015 2063.330811,326.914825 2052.810059,322.413757
	C2024.344727,310.235657 1995.862671,297.996460 1965.453125,291.442566
	C1953.791626,288.929260 1941.803345,287.865417 1929.929321,286.427368
	C1921.920776,285.457550 1914.631958,287.845459 1908.651733,293.179474
	C1895.212280,305.166718 1884.876831,318.509674 1883.753662,337.941345
	C1883.136597,348.616669 1878.948120,359.177490 1871.345703,368.761383
	C1869.448242,366.443573 1867.870361,364.902344 1866.749390,363.080078
	C1861.692383,354.859985 1857.036011,346.380798 1851.713257,338.340607
	C1846.508545,330.478943 1844.637695,321.762970 1844.759399,312.738037
	C1844.823730,307.957794 1846.341797,302.907623 1848.343628,298.496613
	C1854.654663,284.589783 1861.504761,270.927521 1868.426514,256.468262
z"/>
<path fill="#070101" opacity="1.000000" stroke="none"
	d="
M2306.479980,460.528442
	C2309.004395,449.292511 2311.437256,438.927185 2313.758301,428.536835
	C2314.939453,423.249146 2317.756836,420.533081 2323.507324,420.909790
	C2326.449951,421.102539 2329.605713,420.784576 2332.410645,419.894684
	C2353.290039,413.270599 2374.013428,416.563629 2394.555908,421.122101
	C2434.309082,429.943512 2470.695557,447.042023 2505.572021,467.609161
	C2507.789551,468.916992 2510.079346,470.635468 2511.436768,472.741943
	C2513.391113,475.774872 2512.176025,483.481445 2509.891602,484.930267
	C2506.021240,487.384552 2502.871094,484.928223 2499.877930,482.897125
	C2490.774414,476.719330 2480.921387,474.082489 2469.796387,474.163818
	C2444.300293,474.350189 2419.654297,468.109467 2394.871582,463.037201
	C2383.789307,460.769043 2372.583008,459.101440 2361.511230,456.787964
	C2356.167236,455.671326 2352.891846,457.315216 2349.743652,461.714539
	C2338.109375,477.973358 2331.088379,496.236938 2326.023438,515.307861
	C2322.707275,527.794250 2320.223633,540.501770 2317.327393,553.285217
	C2309.541504,555.578491 2305.206787,550.375000 2300.530762,546.472168
	C2299.569336,545.669922 2299.415527,543.454285 2299.496094,541.922058
	C2300.020996,531.960876 2300.513916,521.990784 2301.396240,512.057251
	C2302.897705,495.154663 2304.678711,478.276917 2306.479980,460.528442
z"/>
</svg>
